<svg class="w-40 h-40" viewBox="0 0 105 98" fill="none" xmlns="http://www.w3.org/2000/svg"><g clip-path="url(#clip0_188_21082)"><path d="M49.3998 67.2655L74.0995 51.6463C74.1909 51.5901 74.3104 51.6147 74.3667 51.7061C74.4229 51.7975 74.3983 51.917 74.3069 51.9733L49.5263 67.6417C49.4947 67.6628 49.4595 67.6733 49.4244 67.6733L49.3998 67.2655Z" fill="url(#paint0_linear_188_21082)"></path><path d="M49.4244 67.6733C49.4033 67.6733 49.3787 67.6698 49.3576 67.6628L15.6825 55.1123C15.6585 55.1036 15.6365 55.0902 15.6178 55.0729C15.599 55.0555 15.584 55.0346 15.5735 55.0113C15.563 54.988 15.5573 54.9629 15.5567 54.9374C15.5561 54.9118 15.5606 54.8865 15.57 54.8627C15.6087 54.7608 15.7176 54.7116 15.8196 54.7502L49.4068 67.2655L49.4244 67.6733Z" fill="url(#paint1_linear_188_21082)"></path><path d="M84.7617 7.66758L80.8738 14.1043L65.2546 20.7454L64.3862 21.1145L50.3487 34.2411C50.078 34.5118 49.8952 34.8986 49.8635 35.113C49.8495 35.1868 49.7862 35.1552 49.7264 35.1517C49.6631 35.1482 49.5753 35.1728 49.5682 35.0954C49.5612 34.8142 49.5296 34.5013 49.076 34.22L42.0416 29.6638L36.9123 26.338L22.4642 22.6329L10.3704 19.5321L2.71057 7.63242L2.82659 7.49883L2.83362 7.48828L31.5904 0.0140642C31.6326 1.67871e-06 31.6396 0.00703293 31.6572 0.0316423L41.4651 14.7231L41.6584 15.0114C41.8694 15.3207 41.8905 15.5106 41.8905 15.6477H42.0698V15.6161C42.0698 15.602 42.0698 15.5844 42.0733 15.5668C42.0733 15.5563 42.0768 15.5457 42.0768 15.5317C42.0803 15.5176 42.0803 15.5036 42.0838 15.4895C42.0873 15.4754 42.0873 15.4614 42.0908 15.4438C42.1014 15.3946 42.1155 15.3383 42.1295 15.2821C42.133 15.2645 42.1401 15.2469 42.1436 15.2329C42.1612 15.1766 42.1787 15.1168 42.1998 15.0606C42.2104 15.0395 42.2174 15.0149 42.228 14.9938C42.2561 14.9235 42.2842 14.8602 42.3158 14.8039C42.344 14.7477 42.3721 14.702 42.4002 14.6633L51.242 1.80352C51.2631 1.77188 51.2737 1.75781 51.3194 1.76485L84.7058 7.50938L84.7617 7.66758Z" fill="#E8B67F"></path><path d="M42.0416 29.6602H42.0381L36.9126 26.3383L22.4641 22.6329L41.8904 15.6477L41.9431 15.5457V15.6477L42.0416 29.6602Z" fill="url(#paint2_linear_188_21082)"></path><path d="M41.8905 15.6477L22.4642 22.6294L20.7134 22.1794L10.3704 19.5251L2.71057 7.6254L2.83362 7.48126L31.5904 0.00704513C31.6326 -0.00701736 31.6396 1.38868e-05 31.6572 0.0246233L41.4651 14.7161L41.6584 15.0043C41.8694 15.3208 41.8905 15.5106 41.8905 15.6477Z" fill="url(#paint3_linear_188_21082)"></path><path d="M41.959 16.3895L23.5906 22.9915L20.7253 22.2567L41.4774 14.7966L41.6707 15.0849C41.8817 15.3942 41.9028 15.5841 41.9028 15.7212H41.9555L41.959 16.3895Z" fill="url(#paint4_linear_188_21082)"></path><path d="M10.6344 19.5954L10.3742 19.5286L2.71405 7.62889L2.83007 7.4953L10.6344 19.5954Z" fill="#D2A679"></path><path d="M65.2545 20.745L64.3862 21.1141L50.3486 34.2411C50.0779 34.5118 49.8951 34.8986 49.8635 35.113C49.8494 35.1868 49.7861 35.1552 49.7264 35.1517C49.6631 35.1482 49.5752 35.1728 49.5682 35.0954C49.5611 34.8142 49.5295 34.5013 49.076 34.22L42.0416 29.6603L41.9467 15.6512V15.5493L42.0767 15.6512L65.2545 20.745Z" fill="url(#paint5_linear_188_21082)"></path><path d="M84.7617 7.66761L80.8738 14.1044L66.6573 20.1477L65.2581 20.7419L42.0732 15.6477C42.0592 15.4684 42.1822 15.0606 42.3158 14.8005C42.3439 14.7442 42.3721 14.6985 42.4002 14.6598L51.242 1.80003C51.2631 1.76839 51.2736 1.75433 51.3193 1.76136L84.7058 7.50589L84.7617 7.66761Z" fill="url(#paint6_linear_188_21082)"></path><path d="M66.6573 20.1474L64.3897 21.1106L64.0979 21.3919L41.9432 16.4946L42.0451 15.6438H42.0733C42.0592 15.4645 42.1822 15.0567 42.3158 14.7966L66.6573 20.1474Z" fill="url(#paint7_linear_188_21082)"></path><path opacity="0.75" d="M42.5584 15.7532V29.9943L42.0416 29.6603H42.0381L41.3596 29.2173V15.8375L41.8904 15.6477H42.0697L42.5584 15.7532Z" fill="url(#paint8_linear_188_21082)"></path><path d="M49.2873 67.4448L15.5841 54.8698C15.3942 54.7889 15.3661 54.6096 15.3555 54.3881C15.3555 54.3881 13.9071 25.6669 13.9036 25.6634C13.9001 25.5895 13.9915 25.5438 13.9845 25.4981C13.9598 25.3892 13.7524 24.9778 13.6856 24.9356L0 17.1591L0.116016 16.8954L36.9127 26.3384L49.0729 34.2165C49.5264 34.4978 49.5615 34.8107 49.565 35.0919C49.5686 35.1693 49.66 35.1447 49.7232 35.1482C49.7865 35.1517 49.8463 35.1833 49.8604 35.1095C49.892 34.8951 50.0748 34.5083 50.3455 34.2411L64.3827 21.1142L89.8383 10.2938L89.993 10.5082L76.2511 22.584C75.9839 22.8512 75.8609 23.1782 75.9136 23.3118L74.5073 51.4603C74.4863 51.6396 74.4019 51.6924 74.2226 51.8154L49.5861 67.41C49.4877 67.4733 49.3822 67.4905 49.2873 67.4448Z" fill="#BF9064"></path><path d="M49.7229 35.1481L49.4803 67.4588C49.4151 67.4772 49.3454 67.4722 49.2834 67.4448L15.5806 54.8733C15.3907 54.7924 15.3626 54.6096 15.352 54.3916L13.9001 25.6669V25.6598C13.9001 25.6528 13.9001 25.6458 13.9036 25.6387C13.9036 25.6317 13.9071 25.6282 13.9106 25.6247C13.9141 25.6176 13.9177 25.6141 13.9212 25.6071C13.9247 25.6001 13.9282 25.5965 13.9317 25.5895C13.9458 25.5684 13.9669 25.5473 13.9739 25.5297C13.9774 25.5262 13.9774 25.5227 13.9774 25.5192V25.5157L49.5686 35.106C49.5826 35.1692 49.6666 35.1446 49.7229 35.1481Z" fill="#BD8F63"></path><path opacity="0.54" d="M49.4842 67.3639V67.4553C49.4189 67.4737 49.3493 67.4687 49.2873 67.4413L15.584 54.8698C15.4505 54.8135 15.3977 54.7045 15.3731 54.5709L49.4842 67.3639Z" fill="url(#paint9_linear_188_21082)"></path><path d="M34.2443 47.765L47.294 52.033L47.2623 64.7588L34.4553 60.0549L34.2443 47.765ZM40.7834 56.315L40.815 62.2104L47.1354 64.5321V58.5225L40.7834 56.315ZM42.6505 58.2194L43.9278 60.2522L45.179 59.156L45.3969 59.4045L44.1057 60.5355L45.3998 62.595L45.2124 62.7127L43.9369 60.6832L42.692 61.7744L42.4741 61.5259L43.759 60.3998L42.4632 58.3372L42.6505 58.2194ZM46.4116 60.5088V61.0889L46.7455 61.1979V61.8518L46.4116 61.7182V62.2455L45.6803 61.1346L46.4116 60.5088ZM45.2866 59.8022L45.5432 59.883V62.1998L45.2866 62.1084V59.8022ZM34.501 54.1315L34.5959 59.9358L40.6357 62.1436L40.6006 56.2619L34.501 54.1315ZM43.9439 61.0502L44.6049 62.1154L43.2865 61.6373L43.9439 61.0502ZM44.9631 60.0729V61.5846L44.2776 60.6178L44.9631 60.0729ZM42.3475 58.7264L42.6006 58.8108V61.124L42.3475 61.0361V58.7264ZM42.917 59.3486L43.5709 60.3576L42.917 60.8604V59.3486ZM37.4537 56.5467L37.7033 56.6276L37.7041 56.7759C38.4473 57.0747 39.1813 57.8201 39.5353 58.9795C39.3033 58.5893 39.0994 58.5154 38.7373 58.6385C38.6037 58.3608 38.2099 58.2131 37.9744 58.3608C37.9146 58.2468 37.8237 58.1522 37.7121 58.0879L37.7248 60.2943C37.7248 60.4983 37.5842 60.6811 37.2361 60.6108C36.9197 60.5334 36.7896 60.2908 36.8248 59.876L37.0006 59.9041C37.0006 60.1818 37.0217 60.3401 37.2326 60.3893C37.4119 60.4315 37.4928 60.3647 37.4928 60.1994L37.4696 58.011C37.3697 58.0039 37.2773 58.0285 37.2115 58.0865C37.1307 57.8826 36.7474 57.6084 36.4592 57.8123C36.2553 57.4889 35.8721 57.3658 35.6576 57.6014C35.9315 56.7734 36.675 56.4834 37.4551 56.6926L37.4537 56.5467ZM41.4545 58.7018L42.1682 59.8268L41.4616 60.4139L41.4756 59.8619L41.1311 59.7811V59.1412L41.4545 59.2608V58.7018ZM43.2651 58.9443L44.601 59.4295L43.933 60.0166L43.2651 58.9443ZM40.7725 50.085L40.7866 56.0967L47.1393 58.3115V52.1697L40.7725 50.085ZM41.9573 55.2775L45.7541 56.5748V57.3307L41.9573 56.0229V55.2775ZM38.6881 56.7119C38.7127 56.7365 38.7127 57.0002 38.6318 57.06C38.6079 57.0707 38.5816 57.0748 38.5556 57.0717C38.5295 57.0686 38.5049 57.0585 38.4842 57.0424C38.435 57.0037 38.4068 56.9475 38.4279 56.8631C38.449 56.7787 38.6599 56.6873 38.6881 56.7119ZM39.0396 56.1108C39.0678 56.1354 39.0678 56.399 38.9834 56.4588C38.9595 56.4696 38.9331 56.4736 38.9071 56.4705C38.8811 56.4674 38.8564 56.4573 38.8357 56.4412C38.7865 56.4026 38.7584 56.3463 38.7795 56.2619C38.8006 56.1776 39.0115 56.0861 39.0396 56.1108ZM38.0553 56.0861C38.0834 56.1108 38.0834 56.3744 37.999 56.4342C37.9751 56.445 37.9488 56.449 37.9227 56.4459C37.8967 56.4428 37.872 56.4327 37.8514 56.4166C37.8021 56.3779 37.774 56.3217 37.7951 56.2373C37.8162 56.1529 38.0271 56.0615 38.0553 56.0861ZM37.0603 55.942C37.0885 55.9666 37.0885 56.2303 37.0041 56.2901C36.9802 56.3008 36.9538 56.3049 36.9278 56.3018C36.9018 56.2987 36.8771 56.2885 36.8564 56.2725C36.8072 56.2338 36.7791 56.1776 36.8002 56.0932C36.8213 56.0088 37.0322 55.9174 37.0603 55.942ZM44.8893 51.9908L45.8104 53.8084L45.1811 53.5939V56.2271L44.5518 56.0092L44.5553 53.397L43.9295 53.1931L44.8893 51.9908ZM34.3814 47.99L34.4904 53.9209L40.6041 56.0232L40.5514 50.015L34.3814 47.99ZM42.8119 51.2982L43.733 53.1158L43.1037 52.9013V55.5345L42.4744 55.3166L42.4814 52.7045L41.8521 52.5006L42.8119 51.2982ZM35.749 49.1818L36.2482 49.347L36.4803 50.1873L36.2201 50.1697L36.9619 51.9627L36.5787 50.4861L36.7967 50.4826L36.5752 49.4525L39.1521 50.3033V51.7201C39.1521 52.258 38.5685 52.9365 37.7459 52.599L37.7494 54.0228L38.9307 54.7822L36.0725 53.7908L37.2221 53.847L37.201 52.4373C36.3853 52.1947 35.7947 51.2138 35.7947 50.6162L35.749 49.1818Z" fill="#322214"></path><path d="M49.7229 35.1482C49.5823 35.1517 49.4768 35.338 49.4733 35.5068L49.4416 35.5208L13.9001 25.663C13.8966 25.5962 13.9739 25.554 13.9809 25.5119C13.9845 25.5083 13.9845 25.5048 13.9809 25.5013C13.9563 25.3923 13.7489 24.981 13.6821 24.9388L0 17.1598L0.116016 16.8961L36.9091 26.3352H36.9127L49.0729 34.2134C49.5264 34.4981 49.5615 34.8075 49.565 35.0888C49.565 35.0923 49.565 35.0993 49.5686 35.1028C49.5826 35.1696 49.667 35.145 49.7232 35.1485" fill="url(#paint10_linear_188_21082)"></path><path d="M76.2546 22.5801C75.9874 22.8473 75.8644 23.1743 75.9171 23.3079L50.0323 35.556L49.9795 35.5138C49.976 35.3099 49.8459 35.1728 49.7475 35.1517C49.8002 35.1587 49.8495 35.1763 49.8635 35.1095C49.8705 35.0673 49.8811 35.0181 49.8987 34.9653C49.9127 34.9196 49.9338 34.8704 49.9584 34.8177C50.0323 34.6489 50.1448 34.4661 50.2889 34.3044C50.31 34.2833 50.3311 34.2587 50.3522 34.2376L64.3897 21.1106L89.8453 10.2902L90 10.5047L76.2546 22.5801Z" fill="#CD9C6B"></path><path d="M33.7486 38.3681C33.7873 38.3787 33.8013 38.3822 33.8013 38.3506L33.6677 31.2001C33.6572 30.9575 33.5974 30.4794 33.3056 30.2861L20.3442 22.4114L14.2692 20.8434L27.4419 28.7149C27.7724 28.9329 27.8005 29.3407 27.8146 29.6431L28.0044 36.5963C28.0044 36.6314 28.0115 36.6384 28.0361 36.649L33.7486 38.3681Z" fill="url(#paint11_linear_188_21082)"></path><path d="M49.7229 35.1481C49.5788 35.1517 49.4733 35.3485 49.4733 35.5208C49.4698 35.5349 49.4452 35.5313 49.4416 35.5208C49.4135 35.1376 49.2553 34.7087 49.0479 34.5575L36.7896 26.6544L36.9091 26.3345H36.9127L49.0729 34.213C49.5264 34.4978 49.5615 34.8071 49.565 35.0884C49.565 35.0919 49.565 35.0989 49.5686 35.1024C49.5826 35.1692 49.6666 35.1446 49.7229 35.1481Z" fill="#D4A271"></path><path d="M36.9091 26.3383L36.7896 26.6547L0 17.1594L0.116016 16.8992L36.9091 26.3383Z" fill="#DEB37E"></path><path d="M75.9206 23.3079L74.5144 51.4564C74.4933 51.6357 74.4089 51.6885 74.2296 51.8115L49.5932 67.4061C49.558 67.4307 49.5193 67.4448 49.4842 67.4553L49.7268 35.1446C49.7901 35.1481 49.8498 35.1798 49.8639 35.106C49.8639 35.0954 49.8674 35.0884 49.8674 35.0778L75.9136 23.2759C75.9136 23.2935 75.9171 23.3008 75.9206 23.3079Z" fill="#DBAD77"></path><path opacity="0.54" d="M74.5144 51.4459V51.46C74.4933 51.6393 74.4089 51.692 74.2296 51.8151L49.5932 67.4097C49.558 67.4343 49.5193 67.4483 49.4842 67.4589V67.3675L74.5144 51.4459Z" fill="url(#paint12_linear_188_21082)"></path><path d="M74.0538 39.1978L73.4913 50.6584L65.2999 55.7596L65.7218 43.8311L74.0538 39.1978ZM69.6734 47.4947L65.6023 49.8885L65.4089 55.5311L69.4624 53.0104L69.6734 47.4947ZM67.7292 49.9166L67.7222 50.1064C68.2084 49.8639 68.6679 50.0326 68.8613 50.8377C68.7277 50.6514 68.4851 50.7252 68.3234 51.1049C68.2495 50.9467 67.8734 51.0768 67.8171 51.4072C67.7872 51.3534 67.7334 51.3337 67.6716 51.3408L67.5819 53.5166C67.5749 53.7029 67.5643 53.9033 67.3288 54.0475C67.2198 54.0967 66.9315 54.1354 66.9702 53.7311L67.1073 53.6256C67.0968 53.8822 67.1636 53.9596 67.3042 53.8752C67.4729 53.7732 67.4413 53.6115 67.4483 53.4604L67.5239 51.3988C67.4694 51.4345 67.4226 51.4807 67.3861 51.5346C67.3495 51.5886 67.3241 51.6492 67.3112 51.7131C67.269 51.5865 66.8612 51.6639 66.812 52.026C66.696 51.8713 66.3796 52.0225 66.26 52.4127C66.4801 51.3991 67.0257 50.5579 67.5689 50.1957L67.5749 50.0291L67.7292 49.9166ZM73.6706 45.1318L69.7894 47.4275L69.5749 52.9576L73.414 50.5424L73.6706 45.1318ZM72.4718 46.9951L72.5843 47.1006L71.7384 49.0194L72.4366 49.9834L72.3241 50.2225L71.6281 49.2697L70.7913 51.1682L70.6753 51.0627L71.5275 49.1323L70.8054 48.1447L70.932 47.9057L71.6386 48.8812L72.4718 46.9951ZM70.1093 49.1994L70.5488 49.7338L70.0812 50.7393V50.2963L69.8843 50.4158L69.8948 49.8428L70.0917 49.7268L70.1093 49.1994ZM70.8687 48.5033L70.7773 50.6232L70.6191 50.7287L70.707 48.6158L70.8687 48.5033ZM71.6105 49.6107L71.9866 50.1064L71.1781 50.5986L71.6105 49.6107ZM67.3038 49.7654C67.3214 49.7654 67.3109 50.008 67.2511 50.1275C67.23 50.1697 67.1913 50.2154 67.1597 50.2189C67.128 50.2225 67.114 50.1873 67.1316 50.0959C67.1491 50.0045 67.2863 49.7654 67.3038 49.7654ZM71.0445 48.7916L71.4171 49.2521L70.9812 50.1135L71.0445 48.7916ZM68.3726 49.326C68.3866 49.3295 68.3761 49.5721 68.3198 49.6881C68.2988 49.7303 68.2601 49.776 68.2284 49.7795C68.1968 49.783 68.1827 49.7479 68.2003 49.6564C68.2179 49.565 68.355 49.326 68.3726 49.326ZM69.9335 41.6479L65.8202 43.9541L65.6058 49.7092L69.6874 47.3045L69.9335 41.6479ZM72.6441 47.424L72.5456 49.5404L72.405 49.6318L72.4999 47.5189L72.6441 47.424ZM67.9859 49.1678C68.0034 49.1678 67.9929 49.4104 67.9331 49.5299C67.912 49.5721 67.8734 49.6178 67.8417 49.6213C67.8101 49.6248 67.796 49.5896 67.8136 49.4982C67.8312 49.4068 67.9683 49.1678 67.9859 49.1678ZM72.282 48.0393L72.2257 49.3893L71.8601 48.9533L72.282 48.0393ZM73.1538 47.3959L73.1327 47.9162L73.3366 47.8037L73.312 48.3803L73.1152 48.4963L73.1081 48.9709L72.6827 48.4611L73.1538 47.3959ZM68.6433 48.4717C68.6609 48.4717 68.6503 48.7143 68.5906 48.8338C68.5695 48.876 68.5308 48.9217 68.4991 48.9252C68.4675 48.9287 68.4534 48.8936 68.471 48.8021C68.4886 48.7107 68.6257 48.4717 68.6433 48.4717ZM72.0816 47.6561L71.6456 48.6545L71.2695 48.1447L72.0816 47.6561ZM68.9773 42.8713L68.9245 44.3197C68.9034 44.8119 68.5097 45.7049 67.9226 46.0775L67.8593 47.4451L68.6433 47.2764L66.7343 48.3803L67.5288 47.6244L67.571 46.2814C67.0613 46.5732 66.6534 46.0318 66.6781 45.4834L66.7238 44.1545L67.0683 43.9682L67.1808 44.608L66.9945 44.7592L67.4058 45.951L67.2476 44.8646L67.3882 44.7029L67.2792 43.8486L68.9773 42.8713ZM73.9695 39.4052L70.032 41.606L69.7859 47.2627L73.6882 44.9283L73.9695 39.4052ZM72.9429 44.2814L72.8937 44.9529L70.5874 46.317L70.6191 45.6384L72.9429 44.2814ZM71.3116 41.381L71.8214 42.4568L71.4382 42.6713L71.3222 45.0865L70.9566 45.2974L71.0269 42.8822L70.6577 43.1037L71.3116 41.381ZM72.5913 40.6709L73.087 41.7291L72.6792 41.9576L72.5948 44.3552L72.2046 44.5732L72.3277 42.158L71.9445 42.3759L72.5913 40.6709Z" fill="#322214"></path><path d="M64.5936 21.3884L50.6756 34.3255C50.2818 34.7017 50.0217 35.2642 50.0322 35.556C50.0252 35.57 49.9901 35.5806 49.976 35.556C49.9936 35.331 49.8494 35.1763 49.744 35.1517C49.7967 35.1587 49.8459 35.1763 49.86 35.1095C49.867 35.0673 49.8775 35.0181 49.8951 34.9653C49.9092 34.9196 49.9303 34.8704 49.9549 34.8177C50.0393 34.6278 50.1764 34.4099 50.3451 34.2411L64.3827 21.1141L64.5936 21.3884Z" fill="#D7AA77"></path><path d="M61.5245 37.0814C61.5245 37.1201 61.5421 37.1377 61.5667 37.1271L65.7467 34.9826C65.7538 34.9791 65.7573 34.972 65.7608 34.958L65.9928 28.1064C65.9999 27.7302 66.2108 27.3575 66.4991 27.1009L80.3812 14.625L76.1554 16.4355L62.2026 29.077C61.844 29.4286 61.721 29.8434 61.714 30.195L61.5245 37.0814Z" fill="url(#paint13_linear_188_21082)"></path><path d="M64.5937 21.3884L89.9965 10.5043L89.8418 10.2934L64.3862 21.1106L64.5937 21.3884Z" fill="#F8CE93"></path></g><g clip-path="url(#clip1_188_21082)"><path d="M37.139 80.2635L14.8413 71.4544L15.7231 69.2222L38.0209 78.0314L39.2334 74.9622L44.2693 81.7902L35.9265 83.3327L37.139 80.2635ZM8.5929 67.6956L16.9357 66.1531L13.6288 74.5235L8.5929 67.6956Z" fill="#77809C"></path></g><path d="M19.508 90.6679H22.268V91.9999H17.828V83.6239H19.508V90.6679Z" fill="#040404"></path><g clip-path="url(#clip2_188_21082)"><path d="M60.9738 75.0543L77.2005 64.6343L78.4973 66.6538L62.2706 77.0738L64.0537 79.8505L56.7542 79.19L59.1907 72.2775L60.9738 75.0543ZM82.7169 62.5181L80.2804 69.4306L75.4173 61.8576L82.7169 62.5181Z" fill="#77809C"></path></g><path d="M81.5798 80.704C82.0518 80.792 82.4398 81.028 82.7438 81.412C83.0478 81.796 83.1998 82.236 83.1998 82.732C83.1998 83.18 83.0878 83.576 82.8638 83.92C82.6478 84.256 82.3318 84.52 81.9158 84.712C81.4998 84.904 81.0078 85 80.4398 85H76.8278V76.624H80.2838C80.8518 76.624 81.3398 76.716 81.7478 76.9C82.1638 77.084 82.4758 77.34 82.6838 77.668C82.8998 77.996 83.0078 78.368 83.0078 78.784C83.0078 79.272 82.8758 79.68 82.6118 80.008C82.3558 80.336 82.0118 80.568 81.5798 80.704ZM78.5078 80.08H80.0438C80.4438 80.08 80.7518 79.992 80.9678 79.816C81.1838 79.632 81.2918 79.372 81.2918 79.036C81.2918 78.7 81.1838 78.44 80.9678 78.256C80.7518 78.072 80.4438 77.98 80.0438 77.98H78.5078V80.08ZM80.1998 83.632C80.6078 83.632 80.9238 83.536 81.1478 83.344C81.3798 83.152 81.4958 82.88 81.4958 82.528C81.4958 82.168 81.3758 81.888 81.1358 81.688C80.8958 81.48 80.5718 81.376 80.1638 81.376H78.5078V83.632H80.1998Z" fill="#040404"></path><g clip-path="url(#clip3_188_21082)"><path d="M81.805 46.0232L82.7959 26.7645L85.1927 26.8878L84.2018 46.1465L87.4975 46.3161L82.7062 51.8625L78.5094 45.8536L81.805 46.0232ZM84.2916 21.0486L88.4884 27.0574L79.5003 26.5949L84.2916 21.0486Z" fill="#77809C"></path></g><path d="M103.776 32.6264V41.0024H102.096V37.4384H98.5075V41.0024H96.8275V32.6264H98.5075V36.0704H102.096V32.6264H103.776Z" fill="#040404"></path><defs><linearGradient id="paint0_linear_188_21082" x1="1283.87" y1="846.486" x2="1296.95" y2="867.141" gradientUnits="userSpaceOnUse"><stop></stop><stop offset="1" stop-opacity="0"></stop></linearGradient><linearGradient id="paint1_linear_188_21082" x1="1713.92" y1="700.709" x2="1712.23" y2="705.282" gradientUnits="userSpaceOnUse"><stop></stop><stop offset="1" stop-opacity="0"></stop></linearGradient><linearGradient id="paint2_linear_188_21082" x1="1618.09" y1="672.535" x2="1840.68" y2="764.797" gradientUnits="userSpaceOnUse"><stop stop-color="#C37A44"></stop><stop offset="0.4442" stop-color="#BB713D"></stop><stop offset="0.6406" stop-color="#A05728"></stop><stop offset="1" stop-color="#964E23"></stop></linearGradient><linearGradient id="paint3_linear_188_21082" x1="2489.65" y1="1387.64" x2="2006.81" y2="709.912" gradientUnits="userSpaceOnUse"><stop stop-color="#E9B880"></stop><stop offset="1" stop-color="#E4AF76"></stop></linearGradient><linearGradient id="paint4_linear_188_21082" x1="1101.39" y1="433.696" x2="1092.26" y2="408.54" gradientUnits="userSpaceOnUse"><stop stop-color="#C37A45" stop-opacity="0"></stop><stop offset="0.1334" stop-color="#C37A45"></stop><stop offset="0.2945" stop-color="#D08D55"></stop><stop offset="0.5021" stop-color="#DEA167"></stop><stop offset="0.6966" stop-color="#E8AF73"></stop><stop offset="0.8631" stop-color="#ECB477"></stop><stop offset="1" stop-color="#ECB477" stop-opacity="0"></stop></linearGradient><linearGradient id="paint5_linear_188_21082" x1="1147.28" y1="583.066" x2="705.735" y2="1597.87" gradientUnits="userSpaceOnUse"><stop offset="0.0881" stop-color="#AF6938"></stop><stop offset="0.4829" stop-color="#9A5227"></stop><stop offset="0.7792" stop-color="#8D4520"></stop></linearGradient><linearGradient id="paint6_linear_188_21082" x1="1798.62" y1="1089.22" x2="2053.74" y2="630.507" gradientUnits="userSpaceOnUse"><stop offset="0.0327" stop-color="#E4AF76"></stop><stop offset="1" stop-color="#E9B880"></stop></linearGradient><linearGradient id="paint7_linear_188_21082" x1="1268.36" y1="347.662" x2="1271.38" y2="334.254" gradientUnits="userSpaceOnUse"><stop stop-color="#AF6A38" stop-opacity="0"></stop><stop offset="0.086" stop-color="#AF6A38"></stop><stop offset="0.1977" stop-color="#B87542"></stop><stop offset="0.5828" stop-color="#D59C66"></stop><stop offset="0.7771" stop-color="#E4AF76"></stop><stop offset="0.9239" stop-color="#E4AF76" stop-opacity="0"></stop></linearGradient><linearGradient id="paint8_linear_188_21082" x1="51.2031" y1="733.062" x2="153.142" y2="733.062" gradientUnits="userSpaceOnUse"><stop stop-color="#743F1A" stop-opacity="0"></stop><stop offset="0.4929" stop-color="#743F1A" stop-opacity="0.887"></stop><stop offset="0.5" stop-color="#743F1A" stop-opacity="0.9"></stop><stop offset="0.5297" stop-color="#743F1A" stop-opacity="0.847"></stop><stop offset="1" stop-color="#743F1A" stop-opacity="0"></stop></linearGradient><linearGradient id="paint9_linear_188_21082" x1="1717.55" y1="700.508" x2="1718.38" y2="698.319" gradientUnits="userSpaceOnUse"><stop stop-color="#322214"></stop><stop offset="0.2397" stop-color="#322314" stop-opacity="0.989"></stop><stop offset="1" stop-color="#322214" stop-opacity="0"></stop></linearGradient><linearGradient id="paint10_linear_188_21082" x1="2554.78" y1="915.278" x2="2526.79" y2="1008.68" gradientUnits="userSpaceOnUse"><stop offset="0.0476" stop-color="#C69866"></stop><stop offset="0.4156" stop-color="#BA8C5E"></stop><stop offset="0.8135" stop-color="#B5875B"></stop></linearGradient><linearGradient id="paint11_linear_188_21082" x1="1245.55" y1="842.121" x2="582.019" y2="105.187" gradientUnits="userSpaceOnUse"><stop stop-color="#845F35"></stop><stop offset="0.4311" stop-color="#91673C"></stop><stop offset="0.4407" stop-color="#976A40"></stop><stop offset="0.8737" stop-color="#986B40"></stop><stop offset="1" stop-color="#AB8157"></stop></linearGradient><linearGradient id="paint12_linear_188_21082" x1="1300.97" y1="852.158" x2="1302.55" y2="854.648" gradientUnits="userSpaceOnUse"><stop stop-color="#322214" stop-opacity="0"></stop><stop offset="1" stop-color="#322214"></stop></linearGradient><linearGradient id="paint13_linear_188_21082" x1="922.449" y1="1423.96" x2="1050.43" y2="776.741" gradientUnits="userSpaceOnUse"><stop stop-color="#A9794B"></stop><stop offset="0.3857" stop-color="#AE7F53"></stop><stop offset="0.4557" stop-color="#AC7D50"></stop><stop offset="0.6236" stop-color="#A9794B"></stop><stop offset="1" stop-color="#B2875D"></stop></linearGradient><clipPath id="clip0_188_21082"><rect width="90" height="67.8516" fill="white"></rect></clipPath><clipPath id="clip1_188_21082"><rect width="24" height="38.3596" fill="white" transform="translate(4 79.3212) rotate(-68.4426)"></rect></clipPath><clipPath id="clip2_188_21082"><rect width="24" height="30.8547" fill="white" transform="translate(75.9626 52) rotate(57.2934)"></rect></clipPath><clipPath id="clip3_188_21082"><rect width="24" height="30.8547" fill="white" transform="translate(71.8081 20.4062) rotate(2.94541)"></rect></clipPath></defs></svg>